<?xml version="1.0" encoding="UTF-8"?>
<svg id="Capa_1" xmlns="http://www.w3.org/2000/svg" version="1.1" viewBox="0 0 450 52.2">
  <!-- Generator: Adobe Illustrator 29.6.1, SVG Export Plug-In . SVG Version: 2.1.1 Build 9)  -->
  <defs>
    <style>
      .st0 {
        fill: #ff008c;
      }

      .st1 {
        fill: #fff;
      }

      .st2 {
        fill: #0689ff;
      }

      .st3 {
        fill: #15a5c4;
        fill-rule: evenodd;
      }
    </style>
  </defs>
  <path class="st1" d="M426.5,46.2H24.1c-10.9,0-19.8-8.9-19.8-19.8v-1.2C4.3,14.3,13.2,5.4,24.1,5.4h402.4c10.9,0,19.8,8.9,19.8,19.8v1.2c0,10.9-8.9,19.8-19.8,19.8Z"/>
  <g>
    <path d="M33,32.1v-8.2l-4,6.8h-1l-4-6.7v8.1h-2.2v-12.3h1.9l4.9,8.2,4.8-8.2h1.9v12.3h-2.3Z"/>
    <path d="M46.1,26.6v5.5h-2.1v-1.1c-.5.8-1.5,1.3-3,1.3s-3.5-1.2-3.5-2.8,1.1-2.8,3.9-2.8h2.4c0-1.4-.8-2.1-2.3-2.1s-2.1.4-2.9.9l-.9-1.6c1-.8,2.5-1.2,4-1.2,2.9,0,4.4,1.2,4.4,3.9ZM43.9,29.2v-1.1h-2.3c-1.5,0-1.9.6-1.9,1.2s.7,1.3,1.8,1.3,2.1-.5,2.4-1.4Z"/>
    <path d="M58.3,19v13.1h-2.1v-1.2c-.7.9-1.8,1.3-3.1,1.3-2.7,0-4.8-1.9-4.8-4.8s2-4.8,4.8-4.8,2.3.4,3,1.3v-4.9h2.2ZM56.1,27.4c0-1.8-1.2-2.9-2.8-2.9s-2.8,1.1-2.8,2.9,1.2,2.9,2.8,2.9,2.8-1.1,2.8-2.9Z"/>
    <path d="M69.9,28.1h-7.4c.3,1.4,1.4,2.3,3,2.3s1.9-.3,2.6-1l1.2,1.4c-.8,1-2.2,1.5-3.8,1.5-3.1,0-5.2-2-5.2-4.8s2.1-4.8,4.9-4.8,4.7,1.9,4.7,4.9c.1,0,.1.3,0,.5ZM62.6,26.6h5.3c-.2-1.4-1.2-2.3-2.7-2.3-1.4,0-2.4,1-2.6,2.3Z"/>
    <path d="M86.9,27.4c0,2.9-2,4.8-4.8,4.8s-2.4-.4-3.1-1.3v1.2h-2v-13.1h2.2v4.8c.8-.8,1.8-1.2,3-1.2,2.7,0,4.7,1.9,4.7,4.8ZM84.7,27.4c0-1.8-1.2-2.9-2.8-2.9s-2.8,1.1-2.8,2.9,1.2,2.9,2.8,2.9,2.8-1.1,2.8-2.9Z"/>
    <path d="M97.6,22.7l-4.4,10.2c-.9,2.1-2.1,2.8-3.6,2.8s-1.9-.3-2.5-.9l.9-1.6c.4.4,1,.7,1.6.7s1.2-.4,1.7-1.3l.2-.4-4.1-9.4h2.3l3,6.9,3-6.9h1.9Z"/>
  </g>
  <g>
    <path d="M257.7,22.7l-3.5,9.4h-2.1l-2.4-6.5-2.5,6.5h-2.1l-3.4-9.4h2.1l2.5,6.9,2.6-6.9h1.8l2.5,7,2.6-7s1.9,0,1.9,0Z"/>
    <path d="M258.9,19.8c0-.7.6-1.3,1.4-1.3s1.4.5,1.4,1.3-.6,1.4-1.4,1.4c-.8,0-1.4-.6-1.4-1.4ZM259.2,22.7h2.2v9.4h-2.2v-9.4Z"/>
    <path d="M270,31.6c-.5.4-1.3.6-2.1.6-2.1,0-3.2-1.1-3.2-3.2v-4.5h-1.5v-1.8h1.5v-2.1h2.2v2.1h2.5v1.8h-2.5v4.5c0,.9.5,1.4,1.3,1.4s.9-.1,1.2-.4l.6,1.6Z"/>
    <path d="M281,26.7v5.4h-2.2v-5.1c0-1.7-.8-2.5-2.2-2.5s-2.6.9-2.6,2.8v4.8h-2.2v-13.1h2.2v4.8c.7-.8,1.8-1.2,3.1-1.2,2.3,0,3.9,1.3,3.9,4.1Z"/>
    <path d="M294.3,31.6c-.5.4-1.3.6-2.1.6-2.1,0-3.2-1.1-3.2-3.2v-4.5h-1.5v-1.8h1.5v-2.1h2.2v2.1h2.5v1.8h-2.5v4.5c0,.9.5,1.4,1.3,1.4s.9-.1,1.2-.4l.6,1.6Z"/>
    <path d="M305.4,26.7v5.4h-2.2v-5.1c0-1.7-.8-2.5-2.2-2.5s-2.6.9-2.6,2.8v4.8h-2.2v-13.1h2.2v4.8c.7-.8,1.8-1.2,3.1-1.2,2.2,0,3.9,1.3,3.9,4.1Z"/>
    <path d="M317.1,28.1h-7.4c.3,1.4,1.4,2.3,3,2.3s1.9-.3,2.6-1l1.2,1.4c-.8,1-2.2,1.5-3.8,1.5-3.1,0-5.2-2-5.2-4.8s2.1-4.8,4.9-4.8,4.8,1.9,4.8,4.9c-.1,0-.1.3-.1.5ZM309.7,26.6h5.3c-.2-1.4-1.2-2.3-2.7-2.3-1.3,0-2.4,1-2.6,2.3Z"/>
    <path d="M334.1,27.4c0,2.9-2,4.8-4.8,4.8s-2.3-.4-3-1.3v4.6h-2.2v-12.8h2.1v1.2c.7-.9,1.8-1.3,3.1-1.3,2.8,0,4.8,1.9,4.8,4.8ZM331.9,27.4c0-1.8-1.2-2.9-2.8-2.9s-2.8,1.1-2.8,2.9,1.2,2.9,2.8,2.9,2.8-1.1,2.8-2.9Z"/>
    <path d="M335.4,27.4c0-2.8,2.1-4.8,5-4.8s5,2,5,4.8-2.1,4.8-5,4.8c-2.9,0-5-2-5-4.8ZM343.2,27.4c0-1.8-1.2-2.9-2.8-2.9s-2.8,1.1-2.8,2.9,1.2,2.9,2.8,2.9,2.8-1.1,2.8-2.9Z"/>
    <path d="M361.9,22.7l-3.5,9.4h-2.1l-2.4-6.5-2.5,6.5h-2.1l-3.4-9.4h2.1l2.5,6.9,2.6-6.9h1.8l2.5,7,2.6-7s1.9,0,1.9,0Z"/>
    <path d="M372,28.1h-7.4c.3,1.4,1.4,2.3,3,2.3s1.9-.3,2.6-1l1.2,1.4c-.8,1-2.2,1.5-3.8,1.5-3.1,0-5.2-2-5.2-4.8s2.1-4.8,4.9-4.8,4.7,1.9,4.7,4.9c0,0,0,.3,0,.5ZM364.6,26.6h5.3c-.2-1.4-1.2-2.3-2.7-2.3-1.3,0-2.4,1-2.6,2.3Z"/>
    <path d="M379.6,22.6v2.1c-.2,0-.4-.1-.5-.1-1.7,0-2.7,1-2.7,2.9v4.6h-2.2v-9.4h2.1v1.4c.6-1,1.7-1.5,3.3-1.5Z"/>
    <path d="M385.6,27.4c0-2.8,2.1-4.8,5-4.8s5,2,5,4.8-2.1,4.8-5,4.8c-2.9,0-5-2-5-4.8ZM393.4,27.4c0-1.8-1.2-2.9-2.8-2.9s-2.8,1.1-2.8,2.9,1.2,2.9,2.8,2.9,2.8-1.1,2.8-2.9Z"/>
    <path d="M400.2,22.2v.6h2.6v1.8h-2.5v7.6h-2.3v-7.6h-1.5v-1.8h1.5v-.6c0-2,1.2-3.3,3.4-3.3s1.5.2,2,.5l-.6,1.7c-.3-.2-.8-.4-1.2-.4-.9,0-1.4.5-1.4,1.5Z"/>
  </g>
  <path class="st3" d="M419.7,16c2.6,0,4.9,1,6.8,2.6-.9,0-1.7.5-1.8,1.7-.1,2.4,2.9,2.9,1.3,7.7l-1.3,4-3.5-10.5c-.1-.2,0-.2.2-.2h1s.1,0,.1-.1v-.6q0-.1-.1-.1c-1.9.1-3.8.1-5.7,0,0,0-.1,0-.1.1v.6q0,.1.1.1h1c.2,0,.3.1.3.2l1.5,4-2.3,6.7-3.7-10.6c0-.1,0-.2.1-.2h1.2s.1,0,.1-.1v-.6q0-.1-.1-.1c-1.2.1-2.5.1-3.5.1,1.9-2.7,5.1-4.5,8.5-4.5h0ZM428.5,21.2c.8,1.4,1.2,3,1.2,4.7,0,3.8-2.2,7.1-5.2,8.7l3.1-8.8c.4-1.3,1-3.1.9-4.6h0ZM423.1,35.4c-1.1.3-2.2.5-3.3.5s-1.9-.1-2.9-.4l3.1-8.8,3.1,8.7h0ZM415.5,35c-3.3-1.6-5.7-5.1-5.7-9s.3-2.9.9-4.2l4.8,13.2h0ZM419.7,15.1c6,0,11,4.8,11,11s-4.8,11-11,11-11-4.8-11-11,4.9-11,11-11ZM419.7,14.4c6.5,0,11.6,5.2,11.6,11.6s-5.2,11.6-11.6,11.6-11.6-5.2-11.6-11.6,5.3-11.6,11.6-11.6h0Z"/>
  <polygon class="st2" points="227.3 36.6 219.2 36.6 227.3 26.2 219.2 15.7 227.3 15.7 235.4 26.2 227.3 36.6"/>
  <polygon class="st0" points="165.9 18 172.2 18 165.9 26.2 172.2 34.3 165.9 34.3 159.6 26.2 165.9 18"/>
  <path class="st2" d="M230.5,34.9c.1,0,.2.2.3.3,0,.1.1.3.1.4s0,.3-.1.4c0,.1-.2.2-.3.3-.1,0-.3.1-.4.1s-.3,0-.4-.1c-.1,0-.2-.2-.3-.3,0-.1-.1-.3-.1-.4s0-.3.1-.4c0-.1.2-.2.3-.3.1,0,.3-.1.4-.1s.3,0,.4.1ZM230.5,36.1c.1-.1.2-.3.2-.5s0-.4-.2-.5c-.1-.1-.3-.2-.5-.2s-.3,0-.5.2c-.1.1-.2.3-.2.5s0,.4.2.5c.1.1.3.2.5.2s.3,0,.5-.2ZM230.4,35.7s0,0-.1,0l.2.3h-.3l-.2-.3h0v.3h-.3v-.9h.4c0,0,.2,0,.2,0,0,0,0,.1,0,.2s0,.1,0,.2ZM230,35.6h.1s0,0,0,0c0,0,0,0,0,0s0,0,0,0c0,0,0,0,0,0h-.1Z"/>
  <path d="M109,29.4c.3,1.4,1.5,1.9,2.6,1.9s1.6-.3,1.6-.9-.2-.6-1-.9l-2.3-.9c-2.1-.8-3.6-2.1-3.6-4s2.5-4.1,5.5-4.1,4,.6,5.2,3.1l-3.4,1.3c-.3-1-1.3-1.2-1.8-1.2s-1.3.4-1.3.9.4.7,1.1,1l1.8.7c3.1,1.2,3.9,2.7,3.9,4.2,0,2.7-2.7,4.2-5.8,4.2s-5.1-.9-5.8-3.8l3.3-1.3Z"/>
  <path d="M118,40v-19.3h4.5v1.9c.9-1.3,2.2-2.1,4.1-2.1,3.9,0,6.5,3.1,6.5,7.1s-2.5,7-6.5,7-3.3-.8-4.1-2.1v7.5h-4.5ZM125.6,24c-1.8,0-3.1,1.3-3.1,3.4s1.3,3.6,3.2,3.6,3-1.6,3-3.5-1.2-3.5-3.1-3.5Z"/>
  <path d="M149.1,20.7v13.6h-4.5v-1.9c-.9,1.3-2.2,2.1-4.1,2.1-3.9,0-6.5-3.1-6.5-7.1s2.5-7,6.5-7,3.3.8,4.1,2.1v-1.8h4.5ZM141.5,31c1.8,0,3.1-1.3,3.1-3.4s-1.3-3.6-3.2-3.6-3,1.6-3,3.5,1.2,3.6,3.1,3.6Z"/>
  <path d="M154.2,23.6c.4-2.6,2.8-3.2,3.8-3.2s.5,0,.9,0v4.4c-.6-.2-1.3-.2-1.7-.2-1.8,0-2.8,1.1-2.8,2.8v6.8h-4.5v-13.6h4.3v2.9Z"/>
  <g>
    <polygon points="164 15.4 159.5 15.4 159.5 25.1 164 19.3 164 15.4"/>
    <polygon points="159.5 34.3 164 34.3 164 33 159.5 27.2 159.5 34.3"/>
  </g>
  <path d="M172.8,34.3V15.4h4.5v18.9h-4.5Z"/>
  <path d="M193.2,20.7v13.6h-4.5v-1.9c-.9,1.3-2.2,2.1-4.1,2.1-3.9,0-6.5-3.1-6.5-7.1s2.5-7,6.5-7,3.3.8,4.1,2.1v-1.8h4.5ZM185.7,31c1.8,0,3.1-1.3,3.1-3.4s-1.3-3.6-3.2-3.6-3,1.6-3,3.5,1.2,3.6,3.1,3.6Z"/>
  <path d="M202.7,34.6c-1.9,0-3.2-.8-4.1-2.1v1.9h-4.5V15.4h4.5v7.2c.8-1.3,2.3-2.1,4.1-2.1,4,0,6.5,3.1,6.5,7s-2.6,7.1-6.5,7.1ZM201.7,24c-1.9,0-3.2,1.4-3.2,3.6s1.3,3.4,3.1,3.4,3.1-1.6,3.1-3.6-1.1-3.5-3-3.5Z"/>
  <path d="M212.7,29.4c.3,1.4,1.5,1.9,2.6,1.9s1.6-.3,1.6-.9-.2-.6-1-.9l-2.3-.9c-2.1-.8-3.6-2.1-3.6-4s2.5-4.1,5.5-4.1,4,.6,5.2,3.1l-3.4,1.3c-.3-1-1.3-1.2-1.8-1.2s-1.3.4-1.3.9.4.7,1.1,1l1.8.7c3.1,1.2,3.9,2.7,3.9,4.2,0,2.7-2.7,4.2-5.8,4.2s-5.1-.9-5.8-3.8l3.3-1.3Z"/>
</svg>